<svg width="124" height="124" viewBox="0 0 124 124" fill="none" xmlns="http://www.w3.org/2000/svg">
<path d="M61 31.9999C60.75 30.6399 59.72 31.4799 58.62 32.3399C58.1616 32.8287 57.7866 33.3895 57.51 33.9999C57.8932 31.2912 58.0171 28.5521 57.88 25.8199C56.63 17.3099 53.69 8.61991 40.88 8.15991H40.39C27.12 8.63991 24.88 15.7099 23.39 25.8199C23.2567 28.6834 23.3973 31.5531 23.81 34.3899C23.4934 33.6447 23.0388 32.9661 22.47 32.3899C21.38 31.5299 20.34 30.6899 20.09 32.0499C19.7407 33.4934 19.9515 35.0157 20.68 36.3099C21.22 37.5799 21.96 40.1199 22.61 41.3099C22.8881 42.0069 23.5329 42.4895 24.28 42.5599C24.5485 42.4643 24.7962 42.3184 25.01 42.1299L25.15 41.9999C25.15 41.9999 25.15 41.9999 25.15 41.9399C25.5475 43.3608 26.0557 44.7484 26.67 46.0899C27.5034 47.5694 28.4182 49.0016 29.41 50.3799C30.72 53.5399 31.15 58.7799 24.72 64.8799C18.86 70.4299 30.06 78.2399 40.72 77.7099C51.38 78.2399 62.47 70.4299 56.61 64.8799C50.18 58.7899 50.61 53.5599 51.92 50.3899C52.9176 49.01 53.8358 47.5743 54.67 46.0899C55.2606 44.7969 55.7488 43.4594 56.13 42.0899C56.3451 42.2765 56.5925 42.4222 56.86 42.5199C57.6071 42.4495 58.2519 41.9669 58.53 41.2699C59.18 40.0699 59.92 37.5299 60.46 36.2699C61.1741 34.9663 61.3671 33.4403 61 31.9999Z" fill="#B97850"/>
<path d="M40.8699 57.8999C39.8858 57.9526 38.8993 57.8651 37.9399 57.6399C33.7099 54.9399 31.6699 53.4299 30.1299 51.6399C31.6599 53.6399 33.6699 57.5499 37.8799 60.5399C38.8282 60.7913 39.8106 60.8892 40.7899 60.8299C41.7691 60.8892 42.7516 60.7913 43.6999 60.5399C47.4999 57.8499 49.4999 54.3799 50.9899 52.2899C48.792 54.3042 46.385 56.0776 43.8099 57.5799C42.8501 57.8257 41.8601 57.9334 40.8699 57.8999Z" fill="#995425"/>
<path d="M43.5901 41.0499C43.3267 40.9345 43.0519 40.8474 42.7701 40.7899C42.221 40.8142 41.6903 40.9946 41.2401 41.3099C40.9652 41.4267 40.6688 41.4846 40.3701 41.4799C40.0715 41.4834 39.7754 41.4256 39.5001 41.3099C39.0585 41 38.5388 40.8198 38.0001 40.7899C37.7184 40.8474 37.4435 40.9345 37.1801 41.0499C36.3401 41.3899 36.9101 41.8599 37.1801 42.0499C37.8801 42.5699 38.5701 42.3099 39.0601 42.5499C39.3198 42.6837 39.5909 42.7941 39.8701 42.8799C40.2025 42.9149 40.5377 42.9149 40.8701 42.8799C41.1642 42.7999 41.4491 42.6893 41.7201 42.5499C42.2201 42.3099 43.2801 42.5499 43.7901 42.0499C44.3001 41.5499 44.4301 41.3899 43.5901 41.0499Z" fill="#995425"/>
<path d="M52.6499 32.72C52.1999 32.72 51.6499 31.7199 49.4199 31.51C49.7729 31.7628 49.9874 32.166 49.9999 32.5999C50.0011 33.0633 49.7629 33.4944 49.3699 33.74H47.8299C47.4589 33.4977 47.228 33.0909 47.2101 32.6481C47.1923 32.2054 47.3896 31.7814 47.7399 31.51C46.0099 31.75 44.9099 32.69 44.5999 32.63C44.2899 32.57 46.1399 30.9 48.6599 30.91C50.9999 30.92 53.1299 32.72 52.6499 32.72ZM29.1099 32.77C29.5499 32.77 30.1099 31.7699 32.3299 31.5599C31.9962 31.819 31.8006 32.2175 31.7999 32.6399C31.7971 33.1064 32.0353 33.5412 32.4299 33.79H33.9199C34.308 33.5317 34.5408 33.0961 34.5399 32.63C34.5352 32.2089 34.3358 31.8138 33.9999 31.5599C35.7299 31.7899 36.8299 32.74 37.1499 32.68C37.4699 32.62 35.6099 31 33.0999 31C30.7499 31 28.6199 32.77 29.1099 32.77ZM37.1099 28.4599C36.1134 27.8583 34.9827 27.5145 33.8199 27.4599C32.0699 27.3699 29.3299 27.99 28.5599 28.8799L28.0799 29.41V30.08L28.8699 29.82C30.1587 29.0977 31.6241 28.7512 33.0999 28.82C34.1819 28.8695 35.2356 29.1818 36.1699 29.7299C36.4999 29.91 36.7099 30.03 36.9199 30C37.328 29.9638 37.6727 29.6825 37.7899 29.29C37.8099 29 37.2799 28.58 37.0699 28.4599H37.1099ZM43.6599 29.37C43.7784 29.7657 44.1281 30.0478 44.5399 30.08C44.8113 30.0669 45.0725 29.9728 45.2899 29.8099C46.2227 29.2585 47.2773 28.9459 48.3599 28.9C49.8318 28.8384 51.2922 29.1844 52.5799 29.9L53.3699 30.17V29.5L52.8999 28.9699C52.1199 28.08 49.3799 27.4599 47.6299 27.5499C46.4672 27.6045 45.3364 27.9483 44.3399 28.5499C44.0999 28.58 43.5699 29 43.6199 29.37H43.6599ZM52.9999 12.19C52.9999 12.19 50.7199 6.98995 39.5899 7.18995C26.7299 7.50995 24.3299 16 23.3999 21.49C22.641 25.9253 22.6106 30.4548 23.3099 34.9C23.3806 37.9544 24.0076 40.9703 25.1599 43.7999C27.9199 50.9399 31.8599 58.7299 40.6099 58.7299C49.3599 58.7299 53.1799 50.9399 55.9999 43.7999C57.1559 40.6906 57.8303 37.4229 57.9999 34.11C58.3612 31.7729 58.565 29.4143 58.6099 27.0499C58.7699 20.5599 57.1899 14.93 52.9999 12.19ZM40.5499 51.57C37.0999 51.57 34.3099 49.2199 34.3099 48.2599C34.3099 47.2999 37.0999 47.59 40.5499 47.59C43.9999 47.59 46.7999 47.3099 46.7999 48.2599C46.7999 49.2099 43.9999 51.57 40.5499 51.57ZM55.0999 38.74C54.2199 42.4 51.3799 45.74 49.0299 46.34C46.6799 46.9399 45.6899 45.11 43.5399 44.7799C41.3899 44.4499 40.5399 45.16 40.5399 45.16C40.5399 45.16 39.7199 44.4499 37.5399 44.7799C35.3599 45.11 34.3999 46.9399 32.0499 46.34C29.6999 45.74 26.8499 42.41 25.9799 38.74C25.2632 34.7812 24.9283 30.7627 24.9799 26.74C25.0399 26.53 25.0899 26.32 25.1399 26.1299C25.6728 24.2355 26.4105 22.4047 27.3399 20.67C29.4829 20.7638 31.6295 20.7404 33.7699 20.6C33.8844 21.2197 33.9147 21.8521 33.8599 22.48C44.9599 20.12 49.2599 17.73 50.8599 16.48L51.1399 16.34C52.9819 18.1678 54.3394 20.4258 55.0899 22.91C55.5208 24.284 55.8813 25.6791 56.1702 27.09C56.1818 30.9984 55.8235 34.8991 55.0999 38.74Z" fill="black"/>
<path d="M71.77 67.52C66.9544 65.3053 62.0241 63.3492 57 61.66C56.6098 61.4529 56.2093 61.266 55.8 61.1C55.6 60.63 55.06 59.38 54.8 58.8C54 57.13 53.52 56.8 51.35 56.63C51.5458 57.6456 51.8064 58.6476 52.13 59.63C51.07 62.63 44.03 67.78 44.03 67.78C44.03 67.78 53.4 75.21 53.47 75.3C53.35 75.3 44.29 70.69 44.01 70.93C43.01 72.31 40.83 75.33 40.76 75.36C40.76 75.36 38.49 72.36 37.5 70.92C37.23 70.68 28.16 75.25 28.05 75.29C28.12 75.2 37.42 67.81 37.48 67.78C37.48 67.78 30.21 62.65 29.14 59.64C29.4636 58.6576 29.7242 57.6556 29.92 56.64C27.75 56.8 27.41 57.12 26.61 58.79C26.33 59.37 25.78 60.65 25.61 61.1C20.0564 62.903 14.6194 65.0471 9.33 67.52C1.77 71.55 0.59 76.06 0 93.66V107.11H81.1V93.66C80.51 76.06 79.34 71.55 71.77 67.52Z" fill="#CCCCCC"/>
<path d="M28 75.26C28.11 75.26 37.18 70.65 37.45 70.89C38.45 72.28 40.67 75.33 40.71 75.33L37.43 67.74C37.41 67.78 28.11 75.17 28 75.26Z" fill="#8C8C8C"/>
<path d="M40.75 75.32C40.82 75.32 43.02 72.32 44 70.89C44.28 70.65 53.34 75.22 53.46 75.25C53.39 75.17 44.08 67.77 44.02 67.74L40.75 75.32Z" fill="#8C8C8C"/>
<path d="M106.46 30.65C105.25 27.59 92.22 27.07 89.46 27H88.91C86.1 27.07 73.08 27.59 71.91 30.65C70.55 34.08 63.17 56.09 71.36 63.96C76.8 69.19 86.58 69.1 89.24 68.96C91.89 69.09 101.67 69.18 107.12 63.96C115.2 56.09 107.82 34.08 106.46 30.65Z" fill="#F8D930"/>
<path d="M99.21 59.0599C100.927 57.5185 102.271 55.607 103.14 53.4699C103.349 52.9978 103.52 52.5095 103.65 52.0099C104.303 51.9282 104.862 51.4999 105.11 50.8899C105.7 49.8099 106.37 47.5099 106.86 46.3699C107.513 45.1984 107.702 43.8243 107.39 42.5199C107.16 41.2999 106.23 42.0499 105.24 42.8299L105.17 42.9199C105.17 42.6899 105.17 42.4499 105.23 42.2299C105.38 40.2299 105.23 38.4199 105.23 37.0599C105.235 37.0234 105.235 36.9864 105.23 36.9499C105.239 36.4184 105.209 35.887 105.14 35.3599C103.79 26.2799 101.78 19.9999 89.9 19.5299H89C77.15 19.9999 75.14 26.2799 73.8 35.3399C73.7411 35.8679 73.711 36.3987 73.71 36.9299V36.9999C73.71 38.3599 73.55 40.1999 73.71 42.1699L73.77 42.8599L73.69 42.7699C72.69 41.9899 71.77 41.2399 71.55 42.4599C71.2378 43.7643 71.427 45.1384 72.08 46.3099C72.57 47.4499 73.23 49.7499 73.82 50.8299C74.0556 51.4539 74.6104 51.9015 75.27 51.9999C75.403 52.5 75.577 52.9883 75.79 53.4599C76.6557 55.5991 78.0001 57.5114 79.72 59.0499C80.4457 59.6859 81.2069 60.2802 82 60.8299V63.6499C81.9944 64.2239 81.9171 64.795 81.77 65.3499C81.5636 66.2464 81.1681 67.0886 80.61 67.8199C79.7329 68.8091 78.758 69.7071 77.7 70.4999C76.42 71.6799 75.7 72.3799 74.32 73.8599C69.03 79.4699 79.32 90.1199 89.51 89.6099C99.71 90.1199 110.44 79.1599 104.83 73.8599C103.51 72.5999 103.33 72.4599 102.83 71.9699L101.13 70.4499C100.112 69.6897 99.1913 68.8063 98.39 67.8199C97.8447 67.0822 97.4536 66.2421 97.24 65.3499C97.0929 64.795 97.0157 64.2239 97.01 63.6499V60.8299C97.7755 60.281 98.51 59.6901 99.21 59.0599Z" fill="#E5B28D"/>
<path d="M100.43 44.68C100.01 44.68 99.4301 43.75 97.3401 43.52C97.6526 43.759 97.8402 44.1267 97.8501 44.52C97.8479 44.9643 97.6224 45.3777 97.2501 45.62H95.8201C95.4458 45.3806 95.2225 44.9642 95.2301 44.52C95.24 44.1267 95.4275 43.759 95.7401 43.52C94.0801 43.74 93.0201 44.65 92.7401 44.59C92.4601 44.53 94.2301 42.93 96.6301 42.94C98.8601 43 100.9 44.68 100.43 44.68ZM77.9001 44.68C78.3201 44.68 78.8501 43.76 80.9801 43.52C80.6434 43.7814 80.4549 44.1902 80.4748 44.6159C80.4947 45.0417 80.7205 45.4312 81.0801 45.66H82.5001C82.874 45.4144 83.0995 44.9974 83.1001 44.55C83.0902 44.1567 82.9026 43.789 82.5901 43.55C84.2501 43.78 85.3001 44.68 85.5901 44.62C85.8801 44.56 84.1201 43 81.7101 43C79.4701 43 77.4301 44.72 77.9001 44.72V44.68Z" fill="black"/>
<path d="M94.35 56.4499C92.6 56.3299 91.35 56.2699 90.92 56.2599C90.7803 56.2478 90.6398 56.2478 90.5 56.2599C90.2872 56.2933 90.0813 56.3608 89.89 56.4599C89.4 56.6999 89.49 56.7599 88.89 56.4599L88.77 56.3999C88.4836 56.261 88.1682 56.1924 87.85 56.1999C86.96 56.2999 84.4 56.5299 84.04 56.4799C83.68 56.4299 83.49 56.3599 83.76 56.5499C84.97 57.7099 86.23 59.1799 87.88 59.5499C88.7998 59.775 89.7603 59.775 90.68 59.5499L91 59.5999C91.0968 59.5728 91.1906 59.5359 91.28 59.4899C91.4257 59.4212 91.5526 59.3182 91.65 59.1899C91.0477 59.2921 90.4324 59.2921 89.83 59.1899C88.95 59.1199 87.49 58.7699 87.54 58.3999C87.54 58.3399 87.64 58.1899 87.98 58.1599C89.2745 58.0552 90.5607 57.8648 91.83 57.5899C92.1951 57.5077 92.5504 57.387 92.89 57.2299C93.5098 56.9984 94.1115 56.721 94.69 56.3999C94.5757 56.4093 94.4622 56.426 94.35 56.4499Z" fill="#CA3D3C"/>
<path d="M92.25 52.23C91.78 52.65 90.8 52.47 90.34 52.69C90.0898 52.8215 89.8245 52.9222 89.55 52.99C89.2446 53.03 88.9354 53.03 88.63 52.99C88.3708 52.9148 88.1196 52.8143 87.88 52.69C87.42 52.47 86.78 52.69 86.14 52.23C85.88 52.03 85.35 51.6 86.14 51.29C86.3815 51.1765 86.6371 51.0958 86.9 51.05C87.4079 51.0714 87.8997 51.2342 88.32 51.52C88.5721 51.6311 88.8445 51.689 89.12 51.69C89.3987 51.6887 89.6743 51.6309 89.93 51.52C90.3465 51.234 90.8352 51.0711 91.34 51.05C91.6032 51.0946 91.8589 51.1754 92.1 51.29C92.87 51.6 92.62 51.9 92.25 52.23ZM85.87 41C84.7892 40.3744 83.5685 40.0305 82.32 40C80.41 39.9 77.8 40.75 77.01 41.66V41.77C78.3708 41.0128 79.9301 40.6884 81.48 40.84C82.9699 40.9544 84.4137 41.4094 85.7 42.17C85.8471 42.2 86 42.1623 86.1163 42.0673C86.2326 41.9724 86.3 41.8301 86.3 41.68C86.3 41.44 86.1 41.18 85.82 41.03L85.87 41ZM92.52 41.03C92.24 41.18 92.01 41.44 92.04 41.68C92.04 41.8301 92.1074 41.9724 92.2237 42.0673C92.34 42.1623 92.4929 42.2 92.64 42.17C93.9273 41.4117 95.3705 40.9569 96.86 40.84C98.4099 40.6884 99.9692 41.0128 101.33 41.77L101.38 41.66C100.59 40.75 97.98 39.9 96.07 40C94.8216 40.0305 93.6008 40.3744 92.52 41V41.03ZM97 60.83C96 61.6 94.74 62.45 93.25 63.4L93.14 63.48C91.9224 63.8391 90.6595 64.021 89.39 64.02C88.1598 64.023 86.9361 63.8409 85.76 63.48L85.65 63.4C84.3873 62.6106 83.1688 61.7527 82 60.83V61.65C83.3587 63.2784 84.9895 64.6589 86.82 65.73C87.6955 65.9028 88.5885 65.9699 89.48 65.93C90.3682 65.97 91.2579 65.9028 92.13 65.73C93.9619 64.6688 95.6099 63.318 97.01 61.73L97 60.83Z" fill="#B97850"/>
<path d="M106.81 32.0599C105.906 27.2166 102.883 23.0313 98.5699 20.6499C95.9999 19.1199 93.2199 18.5699 88.9999 18.5699C84.1599 18.5699 80.8999 19.6799 78.1699 21.7499C73.247 25.4036 70.293 31.1306 70.1699 37.2599C70.3599 43.9999 72.3599 47.2599 72.3599 47.2599C74.0009 44.1978 75.4147 41.0193 76.5899 37.7499C77.5899 34.3499 79.2399 26.5099 79.2399 26.5099C82.3429 29.6017 85.6324 32.5005 89.0899 35.1899C95.5099 39.6499 102.9 43.4799 104.41 45.5299C105.651 47.4128 106.75 49.3849 107.7 51.4299C108.4 47.1199 107.7 37.7199 106.7 32.0299" fill="#F8D930"/>
<path d="M89.13 79.92C83.6469 79.7932 78.7874 76.3571 76.84 71.23L59.14 78.23C56.6255 79.2317 54.974 81.6633 54.97 84.37V89.54C54.9757 95.441 55.6127 101.324 56.87 107.09H122.1C123.36 101.332 123.997 95.4545 124 89.56V84.39C124.001 81.6816 122.348 79.2472 119.83 78.25L102.12 71.25L102.04 71.31C100.091 76.4055 95.2634 79.824 89.81 79.97L89.13 79.92Z" fill="#CCCCCC"/>
<path d="M70.1901 90.63C74.8701 91.82 80.3901 94.84 82.1901 97.47C83.9901 100.1 85.34 110.69 85.34 116.77H39.55C39.55 110.69 40.8601 100.1 42.7001 97.47C44.5401 94.84 50.0501 91.82 54.7001 90.63H70.1901Z" fill="#7D3F98"/>
<path d="M68.84 89.2199C68.7542 88.8714 68.6941 88.5172 68.66 88.1599C64.7537 90.0669 60.1864 90.0669 56.28 88.1599C56.28 88.1599 56.28 88.2299 56.28 88.2699C56.2693 88.4342 56.2493 88.5978 56.22 88.7599C56.22 88.8699 56.22 88.9799 56.15 89.0899C55.8561 90.3469 55.2969 91.5266 54.51 92.5499C56.1222 95.4258 59.1778 97.19 62.4744 97.1483C65.7711 97.1066 68.7811 95.2656 70.32 92.3499C69.6451 91.4248 69.153 90.3795 68.87 89.2699L68.84 89.2199Z" fill="#E5B28D"/>
<path d="M46.5699 75.59C46.5699 70.68 45.9199 66.66 45.9199 64.59C45.9199 56.86 51.4499 49.22 62.4699 49.22C73.4899 49.22 78.9999 56.91 78.9999 64.64C78.9999 66.64 78.3499 70.64 78.3499 75.64" fill="#593320"/>
<path d="M81.1699 80.4099C78.4299 77.6699 74.8899 76.7699 73.2499 78.4099C72.9131 78.7565 72.6779 79.1889 72.5699 79.6599C72.0989 79.7679 71.6665 80.0031 71.3199 80.3399C69.6799 81.9699 70.5799 85.5199 73.3199 88.2599C75.7699 90.7099 78.8499 91.6799 80.6499 90.6899C79.9348 90.3083 79.2641 89.8489 78.6499 89.3199C79.6774 89.725 80.7759 89.9188 81.8799 89.8899C82.2894 88.8394 82.3798 87.6915 82.1399 86.5899C82.4843 87.0568 82.7887 87.5519 83.0499 88.0699C84.0799 86.2699 83.6199 82.8599 81.1699 80.4099Z" fill="#593320"/>
<path d="M43.84 80.4099C46.58 77.6699 50.13 76.7699 51.76 78.4099C52.096 78.7586 52.334 79.1898 52.45 79.6599C52.921 79.7679 53.3534 80.0031 53.7 80.3399C55.33 81.9699 54.43 85.5199 51.7 88.2599C49.26 90.7099 46.17 91.6799 44.37 90.6899C45.0864 90.3105 45.7574 89.8509 46.37 89.3199C45.3425 89.725 44.244 89.9188 43.14 89.8899C42.7305 88.8394 42.6401 87.6915 42.88 86.5899C42.5391 87.0592 42.2349 87.554 41.97 88.0699C40.93 86.2699 41.4 82.8599 43.84 80.4099Z" fill="#593320"/>
<path d="M62.4699 89.55C58.8324 89.6172 55.3262 88.1914 52.7679 85.6048C50.2096 83.0182 48.8226 79.4965 48.9299 75.86C48.9299 71.67 48.3799 68.26 48.3799 66.53C48.3799 59.95 53.0899 53.46 62.4699 53.46C71.8499 53.46 76.5499 60 76.5499 66.53C76.5499 68.26 75.9999 71.67 75.9999 75.86C76.1071 79.4947 74.7214 83.0148 72.1653 85.6011C69.6092 88.1875 66.1056 89.6144 62.4699 89.55Z" fill="#E5B28D"/>
<path d="M79.89 72.61C79.89 74.88 78.29 77.72 75.53 77.72V72.84C75.53 69.9 76.23 68.71 78.26 68.71C79.34 68.71 79.89 70.33 79.89 72.61Z" fill="#E5B28D"/>
<path d="M44.6699 72.61C44.6699 74.88 46.2699 77.72 49.0399 77.72V72.84C49.0399 69.9 48.3299 68.71 46.2999 68.71C45.2299 68.71 44.6699 70.33 44.6699 72.61Z" fill="#E5B28D"/>
<path d="M64.4 77.3399C64.2408 77.2656 64.0728 77.2118 63.9 77.1799C63.5634 77.1907 63.237 77.2983 62.96 77.4899C62.7944 77.5675 62.6128 77.6052 62.43 77.5999C62.2474 77.6031 62.0663 77.5655 61.9 77.4899C61.6274 77.297 61.3038 77.1891 60.97 77.1799C60.7968 77.2104 60.6286 77.2642 60.47 77.3399C59.95 77.5399 60.3 77.8299 60.47 77.9599C60.9 78.2799 61.32 78.1199 61.62 78.2599C61.7788 78.3448 61.9465 78.4118 62.12 78.4599C62.3192 78.4849 62.5208 78.4849 62.72 78.4599C62.9012 78.4159 63.076 78.3487 63.24 78.2599C63.55 78.1199 64.24 78.2599 64.51 77.9599C64.78 77.6599 64.91 77.5399 64.4 77.3399Z" fill="#B97850"/>
<path d="M69.52 71C66.87 71 64.84 73 65.23 73.06C65.62 73.12 66.72 72.13 68.56 71.88C68.197 72.158 67.9889 72.5929 68 73.05C68.0007 73.5445 68.2483 74.006 68.66 74.28H70.23C70.6285 74.0267 70.8786 73.5952 70.9005 73.1236C70.9224 72.6519 70.7133 72.1991 70.34 71.91C72.7 72.17 73.28 73.19 73.75 73.19C74.22 73.19 72 71 69.52 71Z" fill="black"/>
<path d="M55.39 71.08C58.03 71.08 60.04 73.08 59.66 73.14C59.28 73.2 58.18 72.21 56.35 71.96C56.7045 72.2317 56.9116 72.6534 56.91 73.1C56.9148 73.5958 56.6659 74.0598 56.25 74.33H54.69C54.2967 74.0721 54.0518 73.6405 54.032 73.1706C54.0121 72.7007 54.2199 72.2501 54.59 71.96C52.24 72.22 51.66 73.24 51.19 73.24C50.72 73.24 52.92 71.08 55.39 71.08Z" fill="black"/>
<path d="M65.2599 82.1C64.7899 82.1 63.8399 82.03 63.5599 82.03C63.4601 82.0213 63.3598 82.0213 63.2599 82.03C63.1088 82.0512 62.9609 82.0915 62.8199 82.15C62.7115 82.213 62.5932 82.2569 62.4699 82.28C62.3438 82.256 62.2223 82.2122 62.1099 82.15C61.9724 82.0916 61.8279 82.0513 61.6799 82.03C61.5801 82.0219 61.4798 82.0219 61.3799 82.03C61.0999 82.03 60.1399 82.03 59.6799 82.1C59.0943 82.075 58.512 81.9981 57.9399 81.87C58.8968 82.7373 59.979 83.4553 61.1499 84C61.3962 84.0866 61.651 84.147 61.9099 84.18C62.1199 84.18 62.2999 84.18 62.4699 84.18H63.0299C63.2859 84.1483 63.5375 84.0879 63.7799 84C64.955 83.4573 66.0408 82.7391 66.9999 81.87C66.4279 81.9981 65.8456 82.075 65.2599 82.1Z" fill="#B97850"/>
<path d="M62.75 49.27C51.57 49.27 47.12 57.43 46.31 62.02C45.5 66.61 46.03 68.21 47 72.02C52.65 65.09 58.7599 68.15 66.2699 60.02C69.6499 67.4 75.35 64.58 77.67 72.31C77.67 72.31 78.86 71.59 79.03 66.16C79.2 60.73 76.03 49.22 62.75 49.22" fill="#593320"/>
<path d="M59.1599 67.2899C58.0904 66.6719 56.8845 66.3283 55.6499 66.2899C53.7699 66.1999 51.1999 67.0299 50.4099 67.9299L50.4699 68.0499C51.8118 67.301 53.3505 66.98 54.8799 67.1299C56.3341 67.2377 57.7439 67.6791 58.9999 68.4199C59.1444 68.45 59.2947 68.4134 59.4091 68.3203C59.5236 68.2272 59.59 68.0875 59.5899 67.9399C59.5899 67.6999 59.3999 67.4399 59.1199 67.2899" fill="#593320"/>
<path d="M65.7701 67.2899C66.8404 66.6738 68.0458 66.3304 69.2801 66.2899C71.1701 66.1999 73.7401 67.0299 74.5201 67.9299V68.0499C73.1782 67.301 71.6395 66.98 70.1101 67.1299C68.638 67.2408 67.2112 67.6891 65.9401 68.4399C65.7957 68.47 65.6453 68.4334 65.5309 68.3403C65.4164 68.2472 65.35 68.1075 65.3501 67.9599C65.3501 67.7199 65.5501 67.4599 65.8201 67.3099" fill="#593320"/>
<path d="M61.0801 89.4799H60.7901C60.5501 89.4799 60.3001 89.4199 60.0601 89.3699H60.0001C58.7008 89.1521 57.4407 88.7444 56.2601 88.1599C56.2645 88.1931 56.2645 88.2267 56.2601 88.2599C56.2493 88.4242 56.2293 88.5878 56.2001 88.7499C56.2001 88.8599 56.2001 88.9699 56.1301 89.0799C56.1146 89.1577 56.0946 89.2345 56.0701 89.3099C58.0605 90.6501 60.3668 91.4464 62.7601 91.6199C65.4001 91.7199 67.9101 90.1399 68.9201 89.4899C68.9201 89.4099 68.9201 89.3299 68.8501 89.2599C68.7643 88.9114 68.7041 88.5572 68.6701 88.1999C68.4701 88.3099 68.2601 88.3999 68.0501 88.4899H67.9501L67.3301 88.7399H67.2001C67.0001 88.8199 66.7901 88.8799 66.5901 88.9399L66.4001 88.9999L65.8201 89.1499L65.5701 89.2099L65.0301 89.3099C64.9201 89.3099 64.8001 89.3099 64.6901 89.3699L64.2201 89.4399H63.7401H63.3801C63.0901 89.4399 62.8101 89.4399 62.5201 89.4399C62.2301 89.4399 61.9501 89.4399 61.6601 89.4399L61.0801 89.4799Z" fill="#B97850"/>
<path d="M93.56 103.22C97.9949 103.22 101.59 99.6248 101.59 95.1899C101.59 90.7551 97.9949 87.1599 93.56 87.1599C89.1252 87.1599 85.53 90.7551 85.53 95.1899C85.53 99.6248 89.1252 103.22 93.56 103.22Z" fill="#CCCCCC"/>
<path d="M102.16 93.9999C101.89 100.32 98.1601 101.88 93.5601 101.88C88.9601 101.88 85.2401 100.29 85.0001 93.9999C82.6124 91.6297 81.3375 88.3608 81.4901 84.9999C81.4901 77.1699 86.9101 72.8899 93.6001 72.8899C100.29 72.8899 105.67 77.1799 105.67 84.9999C105.823 88.3608 104.548 91.6297 102.16 93.9999ZM99.4801 102C95.8307 104.153 91.2995 104.153 87.6501 102C83.9101 108.21 83.3201 116.78 83.3201 116.78H103.81C103.81 116.78 103.22 108.2 99.4801 102Z" fill="#E9E9E9"/>
<path d="M89.7 86.8699C89.6951 86.9046 89.6764 86.9358 89.6482 86.9565C89.6199 86.9772 89.5845 86.9857 89.55 86.9799C89.4791 86.9607 89.4325 86.893 89.44 86.8199C89.4776 85.8587 89.1156 84.9248 88.44 84.2399C88.6231 84.5405 88.7135 84.8883 88.7 85.2399C88.8057 85.7899 88.5711 86.3496 88.1048 86.6598C87.6384 86.9699 87.0315 86.9699 86.5652 86.6598C86.0989 86.3496 85.8643 85.7899 85.97 85.2399C85.9478 84.596 86.298 83.9967 86.87 83.6999C86.1656 83.7213 85.4682 83.846 84.8 84.0699C84.4 84.1999 84.21 84.0099 84.63 83.7499C85.3416 83.2987 86.1583 83.0403 87 82.9999C88.83 82.9999 89.7 84.8099 89.7 86.8699ZM102.52 83.7099C101.8 83.2619 100.977 83.007 100.13 82.9699C98.3 82.9699 97.43 84.8099 97.43 86.8699C97.4349 86.9046 97.4536 86.9358 97.4818 86.9565C97.5101 86.9772 97.5455 86.9857 97.58 86.9799C97.6509 86.9607 97.6975 86.893 97.69 86.8199C97.6524 85.8587 98.0144 84.9248 98.69 84.2399C98.5069 84.5405 98.4165 84.8883 98.43 85.2399C98.3243 85.7899 98.5589 86.3496 99.0252 86.6598C99.4915 86.9699 100.098 86.9699 100.565 86.6598C101.031 86.3496 101.266 85.7899 101.16 85.2399C101.185 84.5953 100.834 83.9948 100.26 83.6999C100.964 83.7213 101.662 83.846 102.33 84.0699C102.75 84.1599 102.93 83.9999 102.52 83.7099ZM93.52 94.6499C90.99 94.6499 89.69 95.9399 89.69 97.5399C89.69 99.1399 90.99 100.43 93.52 100.43C96.05 100.43 97.36 99.1299 97.36 97.5399C97.36 95.9499 96.1 94.6499 93.56 94.6499H93.52ZM103.74 86.7199C105.65 93.1199 107.25 94.8299 108.82 94.8299C110.18 94.8299 110.66 90.6899 108.82 86.4399C107.585 83.6082 106.036 80.9246 104.2 78.4399C103.7 77.7361 103.152 77.0678 102.56 76.4399C102.511 79.9054 102.922 83.3621 103.78 86.7199H103.74ZM84.56 76.4599C83.9621 77.0856 83.4106 77.754 82.91 78.4599C81.0743 80.9446 79.5245 83.6282 78.29 86.4599C76.43 90.7099 76.9 94.8499 78.29 94.8499C79.87 94.8499 81.46 93.1399 83.38 86.7499C84.2191 83.3858 84.6158 79.9267 84.56 76.4599Z" fill="black"/>
<path d="M92.46 103.66C92.2941 103.663 92.1359 103.731 92.02 103.85L91.13 104.74C90.8912 104.985 90.8912 105.375 91.13 105.62L93.63 108.12L96.13 105.62C96.2498 105.505 96.3175 105.346 96.3175 105.18C96.3175 105.014 96.2498 104.855 96.13 104.74L95.25 103.85C95.1331 103.734 94.9748 103.669 94.81 103.67C94.642 103.667 94.48 103.732 94.36 103.85L93.63 104.58L92.9 103.85C92.7841 103.731 92.626 103.663 92.46 103.66Z" fill="#7D3F98"/>
<path d="M99.4899 102C99.3199 101.72 99.1399 101.44 98.9599 101.17C95.6265 103.116 91.5033 103.116 88.1699 101.17C87.9899 101.44 87.8099 101.72 87.6399 102C91.2949 104.159 95.8349 104.159 99.4899 102Z" fill="#505050"/>
</svg>
