<svg width="124" height="124" viewBox="0 0 124 124" fill="none" xmlns="http://www.w3.org/2000/svg">
<path d="M87.5001 29.9C87.2001 28.2 85.9001 29.3 84.5001 30.3C83.9001 30.9 83.4001 31.6 83.1001 32.3C83.5001 28.6 83.9001 24.2 83.6001 22.1C82.0001 11.5 78.3001 0.6 62.2001 0H61.6001C45.0001 0.6 42.1001 9.5 40.3001 22.1C40.0001 24.3 40.4001 29.1 40.8001 32.8C40.3001 31.9 39.8001 31 39.1001 30.3C37.7001 29.2 36.4001 28.2 36.1001 29.9C35.6001 32.6 36.1001 33.6 36.8001 35.2C37.5001 36.8 38.4001 40 39.2001 41.5C39.9001 42.7 40.7001 43 41.3001 43.1C41.6001 43 41.9001 42.8 42.2001 42.6C42.3001 42.5 42.3001 42.5 42.4001 42.4C42.4001 42.4 42.4001 42.4 42.4001 42.3C43.1001 44.5 43.9001 46.8 44.3001 47.5C45.7001 49.8 46.6001 51.5 47.7001 52.9C49.4001 56.9 49.9001 63.4 41.8001 71.1C34.5001 78.1 48.5001 87.8 61.9001 87.2C75.3001 87.9 89.2001 78.1 81.8001 71.1C73.7001 63.5 74.3001 56.9 75.9001 52.9C77.0001 51.5 78.0001 49.8 79.3001 47.5C79.7001 46.8 80.5001 44.7 81.1001 42.5C81.4001 42.7 81.7001 42.9 82.0001 43C82.6001 43 83.4001 42.6 84.1001 41.4C84.9001 39.9 85.9001 36.7 86.5001 35.1C87.4001 33.6 88.0001 32.6 87.5001 29.9Z" fill="#E5B28D"/>
<path d="M78.1 34.7999C77.9 34.3999 77.5 34.2 77.2 34.2H65.5C64.5 34.2 64.1 33.2 62.1 33.2C60.1 33.2 59.7 34.2 58.7 34.2H46.9C46.6 34.2 46.2 34.3999 46 34.7999C45.8 35.2999 45.5 36 45.5 37C45.5 39.2 46.7 40.0999 47.4 40.5999C48.1 40.9999 49.9 41.6999 53.3 41.5999C56.7 41.4999 57.4 40.4 57.9 39.7C58.4 39 59.4 37 59.9 35.9C60.4 34.8 61.2 34.2 62 34.2C62.8 34.2 63.6 34.9 64.1 35.9C64.6 37 65.5 39 66.1 39.7C66.7 40.4 67.4 41.4999 70.7 41.5999C74 41.6999 75.8 40.9999 76.6 40.5999C77.4 40.1999 78.5 39.2 78.5 37C78.6 36 78.3 35.2999 78.1 34.7999ZM59.1 35.7C58.5 37.1 57.8 38.5999 57.3 39.0999L57.2 39.2C56.7 39.8 56.1 40.4999 53.3 40.5999C53.1 40.5999 52.8 40.5999 52.6 40.5999C49.8 40.5999 48.4 40 47.9 39.7C46.9 39.1 46.4 38.2 46.4 36.9C46.4 36 46.6 35.3999 46.8 35.0999C46.9 34.9999 46.9 35 47 35H58.6C58.9 35.1 59.2 35.5 59.1 35.7ZM76.2 39.7999C75.7 40.0999 74.3 40.7 71.5 40.7C71.3 40.7 71 40.7 70.8 40.7C68 40.6 67.4 39.8999 66.9 39.2999L66.8 39.2C66.4 38.7 65.6 37.0999 65 35.7999C64.9 35.5999 65.2 35.2 65.4 35.2H77C77.1 35.2 77.2 35.2999 77.2 35.2999C77.4 35.5999 77.6 36.1999 77.6 37.0999C77.7 38.2999 77.2 39.1999 76.2 39.7999Z" fill="black"/>
<path d="M62.2001 62.3C61.3001 62.3 59.0001 62.3 58.5001 62C53.2001 58.6 50.7001 56.7 48.7001 54.5C50.6001 57 53.1001 61.9 58.4001 65.7C58.9001 66 61.2001 66.1 62.0001 66.1C62.8001 66.1 65.2001 66.1 65.6001 65.7C70.4001 62.3 72.9001 58 74.7001 55.4C72.9001 57.3 70.3001 59.1 65.7001 62C65.4001 62.3 63.1001 62.3 62.2001 62.3Z" fill="#B97850"/>
<path d="M65.7 41.5001C65.4 41.4001 64.9 41.2001 64.6 41.2001C64 41.2001 63.2 41.5001 62.6 41.9001C62.3 42.0001 61.7 42.0001 61.4 42.0001C61.1 42.0001 60.5 41.9001 60.3 41.8001C59.7 41.4001 58.9 41.1001 58.3 41.1001C58 41.1001 57.5 41.3001 57.2 41.4001C56.1 41.8001 56.8 42.4001 57.2 42.7001C58.1 43.4001 59 43.1001 59.7 43.3001C60.1 43.5001 60.5 43.7001 60.8 43.7001C61.2 43.8001 61.7 43.8001 62.1 43.7001C62.4 43.7001 62.8 43.5001 63.2 43.3001C63.8 43.0001 65.2 43.3001 65.9 42.7001C66.4 42.3001 66.8 41.9001 65.7 41.5001Z" fill="#B97850"/>
<path d="M72.5001 28.2C69.2001 28.2 66.7001 30.3 67.2001 30.4C67.6001 30.4999 69.0001 29.2 71.3001 28.9C70.9001 29.2 70.6001 29.7999 70.6001 30.2999C70.6001 30.8999 70.9001 31.4999 71.4001 31.7999H73.3001C73.8001 31.4999 74.1001 30.8999 74.1001 30.2999C74.1001 29.6999 73.8001 29.2 73.4001 28.9C76.3001 29.2 77.0001 30.5 77.6001 30.5C78.3001 30.6 75.5001 28.2 72.5001 28.2Z" fill="black"/>
<path d="M51.8 28.3C55.1 28.3 57.6 30.4 57.1 30.5C56.7 30.6 55.3 29.4 53 29C53.4 29.3 53.7 29.9 53.7 30.4C53.7 31 53.4 31.6 52.9 31.9H51C50.5 31.6 50.2 31 50.2 30.4C50.2 29.8 50.5 29.3 50.9 29C48 29.3 47.3 30.6 46.7 30.6C45.9 30.6 48.7 28.3 51.8 28.3Z" fill="black"/>
<path d="M57.1001 23.6C56.9001 23.4 56.7001 23.2 56.5001 22.9C56.4001 22.8 56.4001 22.8 56.3001 22.8C55.7001 22.8 54.9001 22.8 54.2001 22.8C51.8001 22.8 49.2001 22.8 48.2001 23.1C45.7001 23.9 44.4001 25.6 43.3001 26.9C43.2001 27 43.2001 27.1001 43.3001 27.2001C43.4001 27.3001 43.4001 27.3 43.5001 27.3H43.6001C44.1001 27 44.5001 26.8 44.9001 26.6C46.6001 25.7 47.4001 25.3 49.7001 25C52.0001 24.7 54.9001 24.7 57.7001 24.9C57.8001 24.9 57.9001 24.9 58.0001 24.8C58.0001 24.7 58.0001 24.6 58.0001 24.5C57.6001 24.3 57.3001 23.9 57.1001 23.6Z" fill="#505050"/>
<path d="M80.4001 27.2001C79.3001 25.9001 78.0001 24.2001 75.5001 23.4001C74.5001 23.1001 71.8001 23.1001 69.5001 23.1001C68.7001 23.1001 68.0001 23.1001 67.4001 23.1001C67.3001 23.1001 67.2001 23.1001 67.2001 23.2001C67.0001 23.5001 66.8001 23.7001 66.6001 23.9001C66.3001 24.2001 66.0001 24.6001 65.8001 24.9001C65.7001 25.0001 65.7001 25.1001 65.8001 25.2001C65.9001 25.3001 66.0001 25.3001 66.1001 25.3001C68.9001 25.1001 71.8001 25.1001 74.1001 25.4001C76.5001 25.7001 77.2001 26.1001 78.9001 27.0001C79.3001 27.2001 79.7001 27.4001 80.2001 27.7001H80.3001C80.4001 27.7001 80.5001 27.7001 80.5001 27.6001C80.5001 27.5001 80.5001 27.3001 80.4001 27.2001Z" fill="#505050"/>
<path d="M67.5001 49.5C65.5001 49.4 64.1001 49.3 63.6001 49.3C63.4001 49.3 63.3001 49.3 63.1001 49.3C62.9001 49.3 62.6001 49.4 62.4001 49.5C61.8001 49.8 61.9001 49.8 61.3001 49.6L61.2001 49.5C60.9001 49.4 60.5001 49.2 60.2001 49.3C59.2001 49.4 56.3001 49.7 55.9001 49.6C55.6001 49.6 55.3001 49.5 55.6001 49.7C57.0001 51 58.4001 52.7 60.3001 53.1C61.3001 53.4 62.4001 53.4 63.5001 53.1C63.5001 53.1 63.7001 53.1 63.8001 53C63.9001 53 64.0001 52.9 64.1001 52.9C64.1001 52.9 64.1001 52.9 64.2001 52.9C64.4001 52.8 64.5001 52.7 64.6001 52.6C64.6001 52.6 64.0001 52.8 62.5001 52.6C61.5001 52.5 59.9001 52.1 59.9001 51.7C59.9001 51.6 60.0001 51.5 60.4001 51.4C61.3001 51.3 63.7001 51.1 64.8001 50.8C65.2001 50.7 65.6001 50.6 66.0001 50.4C66.7001 50.1 67.4001 49.8 68.0001 49.5C67.8001 49.5 67.6001 49.5 67.5001 49.5Z" fill="#B97850"/>
<path d="M100.9 74.4C98.5 73.1 88.6 69 82.4 67C81.9 66.7 81.4 66.5 80.9 66.3C80.6 65.7 80 64.1 79.6 63.4C78.6 61.3 78 60.9 75.3 60.7C75.5 62 75.9 63.2 76.3 64.4C75 68.1 66.2 74.5999 66.2 74.5999C66.3 74.5999 77.9 83.9 78 84C77.9 84 66.5 78.2 66.2 78.5C65 80.2 62.2 83.9999 62.1 84.0999C62 84.0999 59.2 80.2999 58 78.5C57.7 78.2 46.3 83.9 46.2 84C46.3 83.9 57.9 74.5999 58 74.5999C58 74.5999 48.9 68.2 47.6 64.4C48 63.2 48.3 61.9 48.6 60.7C45.9 60.9 45.5 61.3 44.4 63.4C44 64.1 43.4 65.7 43.1 66.3C37.6 67.9 25.4 72.9 22.7 74.3C13.2 79.3 11.7 85 11 107V124H112.6V107.1C111.9 85.0999 110.4 79.4 100.9 74.4Z" fill="#E9E9E9"/>
<path d="M46.1001 84.1C46.2001 84.1 57.6001 78.3 57.9001 78.6C59.1001 80.4 61.9001 84.2 62.0001 84.2L57.9001 74.7C57.9001 74.7 46.2001 84 46.1001 84.1Z" fill="#CCCCCC"/>
<path d="M62 84.2C62.1 84.2 64.9 80.4 66.1 78.6C66.4 78.3 77.8 84 77.9 84.1C77.8 84 66.2 74.7 66.1 74.7L62 84.2Z" fill="#CCCCCC"/>
<path d="M41.1 17.3C41.1 17.3 40.7 19 41.8 21C42.9 23 41.4 30 41.8 32.5C42.2 35 40.3 32.7 39.6 30.9C38.8 29.1 38.3 19.6 41.1 17.3Z" fill="#505050"/>
<path d="M82.5001 17.3C82.5001 17.3 82.9001 19 81.8001 21C80.7001 23 82.2001 30 81.8001 32.5C81.4001 35 83.3001 32.7 84.0001 30.9C84.8001 29.1 85.3001 19.6 82.5001 17.3Z" fill="#505050"/>
</svg>
